<?xml version="1.0" encoding="UTF-8" standalone="no"?>
<!-- Created with Inkscape (http://www.inkscape.org/) -->

<svg
   width="1920mm"
   height="1080mm"
   viewBox="0 0 1920 1080"
   version="1.1"
   id="svg5"
   xml:space="preserve"
   inkscape:version="1.2.2 (732a01da63, 2022-12-09)"
   sodipodi:docname="first_pancake_splash.svg"
   inkscape:export-filename="first_pancake_splash.png"
   inkscape:export-xdpi="20"
   inkscape:export-ydpi="20"
   xmlns:inkscape="http://www.inkscape.org/namespaces/inkscape"
   xmlns:sodipodi="http://sodipodi.sourceforge.net/DTD/sodipodi-0.dtd"
   xmlns="http://www.w3.org/2000/svg"
   xmlns:svg="http://www.w3.org/2000/svg"><sodipodi:namedview
     id="namedview7"
     pagecolor="#221f36"
     bordercolor="#000000"
     borderopacity="0.25"
     inkscape:showpageshadow="2"
     inkscape:pageopacity="0"
     inkscape:pagecheckerboard="0"
     inkscape:deskcolor="#d1d1d1"
     inkscape:document-units="mm"
     showgrid="false"
     inkscape:zoom="0.065906238"
     inkscape:cx="3527.7389"
     inkscape:cy="2882.8834"
     inkscape:window-width="1280"
     inkscape:window-height="961"
     inkscape:window-x="-8"
     inkscape:window-y="45"
     inkscape:window-maximized="1"
     inkscape:current-layer="layer1" /><defs
     id="defs2" /><g
     inkscape:label="Layer 1"
     inkscape:groupmode="layer"
     id="layer1"><g
       id="g13925"
       transform="matrix(2.0212602,0,0,2.0212602,717.49219,330.39603)"
       style="stroke:#ffa600;stroke-opacity:1"><path
         style="fill:none;fill-opacity:1;stroke:#ffa600;stroke-width:3.4;stroke-linecap:round;stroke-linejoin:round;stroke-dasharray:none;stroke-opacity:1"
         d="m 77.029018,55.701765 c 0.981492,1.74761 0.660871,3.819498 1.05389,5.711198 0.621518,0.99544 -0.28865,2.231555 0.40154,3.19152 0.21198,1.036413 -0.03423,2.123488 0.02972,3.181329 0.03214,1.237928 -0.101928,2.525971 0.271213,3.723212 0.144535,0.265995 0.357282,0.486732 0.501817,0.752726"
         id="path4104" /><path
         style="fill:none;fill-opacity:1;stroke:#ffa600;stroke-width:3.4;stroke-linecap:round;stroke-linejoin:round;stroke-dasharray:none;stroke-opacity:1"
         d="m 68.999935,55.952675 c 3.909174,-0.132352 7.813833,0.235279 11.72009,0.271834 0.299098,0.68356 1.498118,-0.132761 2.170069,-0.150556 0.49159,-0.147288 1.020522,-0.277867 1.41528,-0.623097"
         id="path4106" /><path
         style="fill:none;fill-opacity:1;stroke:#ffa600;stroke-width:3.4;stroke-linecap:round;stroke-linejoin:round;stroke-dasharray:none;stroke-opacity:1"
         d="m 91.581731,55.450856 c 0.02461,3.023746 0.175185,6.065178 -0.335635,9.061102 -0.164361,2.292891 0.318064,4.556053 0.812872,6.777817 l 0.02458,0.219249"
         id="path4108" /><path
         style="fill:none;fill-opacity:1;stroke:#ffa600;stroke-width:3.4;stroke-linecap:round;stroke-linejoin:round;stroke-dasharray:none;stroke-opacity:1"
         d="m 92.08355,62.978122 c 3.349794,-0.190295 6.704245,0.199944 9.97632,0.872907 0.94245,0.03627 1.87845,-0.117564 2.82003,-0.120179"
         id="path4110" /><path
         style="fill:none;fill-opacity:1;stroke:#ffa600;stroke-width:3.4;stroke-linecap:round;stroke-linejoin:round;stroke-dasharray:none;stroke-opacity:1"
         d="m 107.13808,56.203585 c -0.91149,1.399297 -1.25754,2.960533 -1.37463,4.584627 -0.72804,2.105358 -0.3113,4.290723 -0.45754,6.505771 -0.26135,0.811742 0.11326,1.564638 1.07942,1.204139"
         id="path4112" /><path
         style="fill:none;fill-opacity:1;stroke:#ffa600;stroke-width:3.4;stroke-linecap:round;stroke-linejoin:round;stroke-dasharray:none;stroke-opacity:1"
         d="m 124.45079,55.199949 c -1.6362,-0.150829 -3.238,0.09647 -4.78934,0.457797 -1.43876,0.388833 -2.88232,0.196379 -4.32111,0.128932 -2.07513,0.854918 -0.4473,3.679609 -0.94504,5.443671 -0.12124,2.300975 0.22927,4.586281 0.97897,6.758624 0.16751,1.696045 1.98665,2.734067 3.5741,2.342864 2.39516,-0.200646 4.81672,-0.03697 7.22426,-0.05278 1.65915,0.0729 3.2985,0.378654 4.55088,-1.028216"
         id="path4114"
         sodipodi:nodetypes="csssssssssssssssc" /><path
         style="fill:none;fill-opacity:1;stroke:#ffa600;stroke-width:3.4;stroke-linecap:round;stroke-linejoin:round;stroke-dasharray:none;stroke-opacity:1"
         d="m 115.41807,63.479941 c 2.34182,0 4.68363,0 7.02545,0"
         id="path4116" /><path
         style="fill:none;fill-opacity:1;stroke:#ffa600;stroke-width:3.4;stroke-linecap:round;stroke-linejoin:round;stroke-dasharray:none;stroke-opacity:1"
         d="m 62.476305,94.843546 c 0,-2.425451 0,-4.850903 0,-7.276357 0,-0.601686 0.14528,-1.426146 0,-2.007269 -0.228095,-0.912373 -0.574625,-2.541577 -0.25091,-3.512725 0.0374,-0.112209 0.213506,-0.138699 0.25091,-0.250909 0.289407,-0.868223 -0.139581,-0.975384 0.501817,-2.258179 0.0374,-0.07481 -0.07481,-0.213506 0,-0.25091 0.149614,-0.07481 0.34313,0.0529 0.501819,0 0.646306,-0.215434 1.315339,-0.772991 2.00727,-1.003633 0.376364,-0.125455 0.878181,0.125452 1.254545,0 0.11221,-0.0374 0.145116,-0.198015 0.250907,-0.25091 0.556914,-0.278455 3.857858,0 4.767271,0"
         id="path4124" /><path
         style="fill:none;fill-opacity:1;stroke:#ffa600;stroke-width:3.4;stroke-linecap:round;stroke-linejoin:round;stroke-dasharray:none;stroke-opacity:1"
         d="m 67.243573,86.312646 c -0.876594,0.296204 -2.989554,-0.38704 -3.763632,0 -0.394692,0.197345 -0.284472,0.25091 -0.752726,0.25091"
         id="path4128" /><path
         style="fill:none;fill-opacity:1;stroke:#ffa600;stroke-width:3.4;stroke-linecap:round;stroke-linejoin:round;stroke-dasharray:none;stroke-opacity:1"
         d="M 80.541743,79.287197 C 84.672328,78.834503 88.91032,79.03629 93.087186,79.03629"
         id="path4130" /><path
         style="fill:none;fill-opacity:1;stroke:#ffa600;stroke-width:3.4;stroke-linecap:round;stroke-linejoin:round;stroke-dasharray:none;stroke-opacity:1"
         d="m 86.061737,80.290833 c -0.171059,1.205839 0.873384,2.340451 1.003636,3.512725 0.04618,0.415623 -0.04618,0.838919 0,1.254543 0.466071,4.19464 0.02604,-1.574107 0.501816,1.756362 0.05914,0.41398 -0.101422,0.84885 0,1.254546 0.29272,1.170874 0.50182,2.30039 0.50182,3.512722 0,0.334547 -0.149614,0.704411 0,1.003636 0.03266,0.06533 0.44705,0.305676 0.250907,0.501819 -0.196093,0.196093 -0.755296,0.168127 -1.003634,0.250907 -0.224419,0.07481 -0.290234,0.396026 -0.501819,0.50182 -0.450503,0.22525 -1.276823,0.155 -1.756362,0.250907 -0.183383,0.03668 -0.318432,0.214233 -0.501817,0.250909 -0.482518,0.0965 -1.022937,-0.0965 -1.505453,0 -1.491138,0.298228 -2.978758,0.25091 -4.51636,0.25091"
         id="path4132" /><path
         style="fill:none;fill-opacity:1;stroke:#ffa600;stroke-width:3.4;stroke-linecap:round;stroke-linejoin:round;stroke-dasharray:none;stroke-opacity:1"
         d="m 94.341729,94.592639 c -1.150075,-0.08933 -2.200396,-0.01445 -3.261815,0.250907 -1.236969,0.309242 -2.650921,-0.305446 -3.763632,0.25091 -0.373345,0.186671 -1.227354,-0.25091 -1.756362,-0.25091"
         id="path4134" /><path
         style="fill:none;fill-opacity:1;stroke:#ffa600;stroke-width:3.4;stroke-linecap:round;stroke-linejoin:round;stroke-dasharray:none;stroke-opacity:1"
         d="m 103.62536,97.352635 c 0.083,-2.006756 -0.22772,-4.107326 0.2509,-6.021811 0.10143,-0.405696 -0.082,-0.844484 0,-1.254546 0.0367,-0.183383 0.20556,-0.320384 0.25091,-0.501817 0.13751,-0.550002 -0.11122,-1.200218 0,-1.756362 0.0519,-0.259344 0.19905,-0.493382 0.25091,-0.752726 0.11749,-0.587431 -0.27321,-1.711759 0,-2.258179 0.18176,-0.363506 1.25455,-3.274166 1.25455,-3.512725 0,-0.981281 0.81689,-0.659355 1.50545,-1.003636 0.10579,-0.0529 0.1387,-0.213505 0.25091,-0.25091 0.35793,-0.119308 3.91584,-0.425712 4.26545,-0.250907 0.8706,0.435298 1.22319,1.207503 1.75636,2.00727 0.13122,0.196829 0.39603,0.290234 0.50182,0.501819 0.82429,1.648579 0.81125,2.971887 -0.75273,4.014541 -2.00727,1.338181 0.92,-0.919998 -0.75272,0.752727 -0.48171,0.481708 -5.22436,1.556999 -6.02182,1.756362 -0.34828,0.08707 -2.25818,0.488103 -2.25818,0.501817 0,0.250909 0.50182,0 0.75273,0 0.55287,0 0.88299,-0.25091 1.50545,-0.25091 0.5555,0 1.49912,0.169386 2.00728,0 0.11221,-0.0374 0.1387,-0.213505 0.25091,-0.250907 0.27943,-0.09315 2.87834,-0.127825 3.26181,0 0.80965,0.269883 0.26958,0.887518 1.00363,1.254543 1.16994,0.58497 1.77702,2.069235 2.25819,3.512725 0.0264,0.07934 -0.0591,0.19177 0,0.25091 0.51913,0.519138 -0.0203,-0.793314 0.50181,0.250907 0.0748,0.149613 -0.0748,0.352205 0,0.501819 0.22645,0.452885 0.64158,1.200631 0.75273,1.756362 0.0492,0.246036 -0.0609,0.509307 0,0.752727 0.0287,0.114747 0.2135,0.138697 0.25091,0.250907 0.18004,0.540133 0.25091,1.162108 0.25091,1.756362"
         id="path4136" /><path
         style="fill:none;fill-opacity:1;stroke:#ffa600;stroke-width:3.4;stroke-linecap:round;stroke-linejoin:round;stroke-dasharray:none;stroke-opacity:1"
         d="m 131.97806,81.294469 c -1.41526,0.36072 -3.09947,-0.354221 -4.51636,0 -0.45413,-0.151231 -0.46665,0.406458 -0.75273,0.501817 -0.15869,0.0529 -0.34313,-0.0529 -0.50182,0 -0.69637,0.232124 -1.40223,0.701119 -2.00727,1.003636 -0.14961,0.0748 -0.38354,-0.11828 -0.50182,0 -0.62463,0.624633 -1.15266,2.211027 -0.75272,3.010905 0.0529,0.105794 0.2135,0.1387 0.25091,0.25091 0.0529,0.158689 -0.0748,0.352205 0,0.501819 0.0374,0.07481 0.2135,-0.07481 0.25091,0 0.0748,0.149611 -0.0748,0.352203 0,0.501817 0.0478,0.09567 2.44448,0.250909 2.75999,0.250909 1.00723,0 2.1659,-0.171598 3.01091,0.250907 0.14961,0.07481 0.38354,-0.118279 0.50182,0 0.0591,0.05914 -0.0591,0.19177 0,0.25091 0.0679,0.06785 1.90672,0.07518 2.25818,0.25091 0.36593,0.182964 0.40138,0.401386 0.50182,0.501816 0.0591,0.05914 0.16727,0 0.2509,0 0.16728,0.08364 0.36958,0.118669 0.50182,0.25091 0.4972,0.497197 0.73184,1.21276 1.00364,1.756362 0.26737,0.534737 0.23445,-0.03292 0.50182,0.501817 0.10543,0.21086 0.10508,0.857814 0.25091,1.003636 0.0591,0.05914 0.2135,-0.07481 0.2509,0 0.14962,0.299225 -0.10579,0.686258 0,1.003636 0.0374,0.11221 0.19802,0.145116 0.25091,0.250907 0.11221,0.22442 0,0.50182 0,0.752727 0,1.671917 -0.35368,3.18775 -2.00727,4.014541 -0.22442,0.112212 -0.51469,-0.07934 -0.75273,0 -0.11221,0.0374 -0.14511,0.198014 -0.2509,0.25091 -0.36759,0.183795 -1.58272,0.10614 -2.00728,0 -0.36286,-0.09072 -0.64077,-0.411102 -1.00363,-0.501817 -0.55102,-0.137755 -1.20535,0.137753 -1.75636,0 -0.3653,-0.09133 -1.94522,-0.768916 -2.25818,-1.003636 -0.28387,-0.212902 -0.45749,-0.555898 -0.75273,-0.752726 -0.22006,-0.146709 -0.56571,-0.06389 -0.75273,-0.25091 -0.13975,-0.139753 -0.91825,-1.083789 -1.00363,-1.254543 -0.0748,-0.149614 0.11828,-0.38354 0,-0.501819 -0.0591,-0.05914 -0.16727,0 -0.25091,0"
         id="path4138" /><path
         style="fill:none;fill-opacity:1;stroke:#ffa600;stroke-width:3.4;stroke-linecap:round;stroke-linejoin:round;stroke-dasharray:none;stroke-opacity:1"
         d="m 140.25805,80.792652 c 1.3553,0.897804 3.17353,0.783359 4.70818,0.992816 1.45183,-0.06997 2.49108,1.145019 3.96298,0.4752 1.26715,0.175541 2.51046,0.153038 3.72687,0.391151 0.59508,0.411624 1.7826,0.262582 2.40559,-0.102844"
         id="path4148" /><path
         style="fill:none;fill-opacity:1;stroke:#ffa600;stroke-width:3.4;stroke-linecap:round;stroke-linejoin:round;stroke-dasharray:none;stroke-opacity:1"
         d="m 147.2835,83.301741 c 0.40531,5.718141 1.00363,11.09413 1.00363,17.061799"
         id="path4150" /><path
         style="fill:none;fill-opacity:1;stroke:#ffa600;stroke-width:3.4;stroke-linecap:round;stroke-linejoin:round;stroke-dasharray:none;stroke-opacity:1"
         d="m 57.458128,121.6908 c 0.409731,-2.34336 -0.466416,-4.94429 0,-7.27636 0.03668,-0.18339 0.220162,-0.31735 0.250909,-0.50182 0.06462,-0.38771 0.129183,-2.39482 0.250907,-2.76 0.113549,-0.34064 0.397659,-0.58699 0.50182,-1.00363 0.13549,-0.54196 0.07667,-1.23365 0.250907,-1.75636 0.03617,-0.10852 0.49553,-1.22939 0.501819,-1.25455 0.150855,-0.60342 -0.224652,-0.77898 0.25091,-1.25454 0.05914,-0.0591 0.191767,0.0591 0.250907,0 0.146169,-0.14617 -0.02133,-1.15669 0.501819,-1.50546 1.08167,-0.72111 2.811222,-0.90292 4.014541,-0.50182 0.398995,0.13301 0.622401,0.56211 1.003636,0.75273 0.366372,0.18319 0.931432,-0.0722 1.254544,0.25091 0.118279,0.11828 -0.07481,0.35221 0,0.50182 0.105793,0.21158 0.427011,0.2774 0.501816,0.50182 0.125455,0.37636 -0.125452,0.87818 0,1.25454 0.153104,0.45931 0.427704,0.97507 0.25091,1.50546 -0.204145,0.61243 -1.04275,0.77228 -1.505453,1.00363 -0.713962,0.35698 -1.44069,0.84014 -2.258179,1.00363 -1.608063,0.32162 -4.08033,0 -5.770904,0"
         id="path4152" /><path
         style="fill:none;fill-opacity:1;stroke:#ffa600;stroke-width:3.4;stroke-linecap:round;stroke-linejoin:round;stroke-dasharray:none;stroke-opacity:1"
         d="m 68.247209,120.93807 c 1.294944,-1.14526 2.073561,-2.73757 3.262942,-3.98324 1.080831,-1.29207 1.91316,-2.7484 2.807667,-4.12215 0.479016,-1.31429 1.216594,-2.53086 1.634644,-3.89766 0.523569,-0.68296 0.687742,-2.89471 1.403083,-2.56213 0.641802,1.0809 1.129044,2.092 1.600446,3.28196 0.559042,1.09445 0.839276,2.27968 1.102932,3.49159 0.308073,1.41257 0.968585,2.72418 1.038114,4.19434 0.151318,1.22762 0.739943,1.93018 1.085868,3.10754 0.274984,0.80725 0.408836,1.64525 0.366093,2.49702"
         id="path4154" /><path
         style="fill:none;fill-opacity:1;stroke:#ffa600;stroke-width:3.4;stroke-linecap:round;stroke-linejoin:round;stroke-dasharray:none;stroke-opacity:1"
         d="m 72.763567,113.91262 c 1.401117,-0.30385 2.595451,0.57927 3.797397,1.1039 1.371704,0.38295 2.800153,0.6954 4.231688,0.6525"
         id="path4156" /><path
         style="fill:none;fill-opacity:1;stroke:#ffa600;stroke-width:3.4;stroke-linecap:round;stroke-linejoin:round;stroke-dasharray:none;stroke-opacity:1"
         d="m 88.821735,125.20352 c 0.58818,-1.75328 0.581887,-3.65559 0.802338,-5.47295 -0.146099,-2.01843 -0.07021,-4.06665 0.454925,-5.99598 1.106031,-1.49673 1.041548,-4.70283 2.101509,-5.32179 0.597478,1.62413 1.225664,3.0461 1.688792,4.71054 0.741905,1.49498 1.315555,3.05418 2.067549,4.55134 0.901804,1.89378 1.4097,4.20081 3.031198,5.69512 0.763334,0.7245 1.835004,1.39281 1.470394,-0.29552 0.46322,-1.71945 -0.797303,-3.10357 -0.649965,-4.76926 -0.06106,-1.79859 -0.02242,-3.59936 0.07332,-5.39604 0.836092,-1.36064 0.108647,-3.0305 0.287562,-4.52515 -0.0154,-0.41515 -0.0291,-0.83038 -0.0366,-1.24575"
         id="path4158" /><path
         style="fill:none;fill-opacity:1;stroke:#ffa600;stroke-width:3.4;stroke-linecap:round;stroke-linejoin:round;stroke-dasharray:none;stroke-opacity:1"
         d="m 114.91626,107.6399 c -0.33175,-0.72102 -2.20173,0.0282 -2.76,-0.25091 -0.85151,-0.42575 -1.99485,-0.25091 -3.01091,-0.25091 -0.49964,0 -1.28491,-0.15715 -1.75636,0 -0.93982,0.31327 -1.64299,1.27872 -2.00727,2.00727 -0.10579,0.21159 -0.42701,0.2774 -0.50182,0.50182 -0.10579,0.31738 0.10579,0.68626 0,1.00363 -0.0374,0.11221 -0.19801,0.14512 -0.25091,0.25091 -0.14961,0.29923 0.0811,0.67908 0,1.00364 -0.0287,0.11475 -0.19801,0.14512 -0.25091,0.25091 -0.27191,0.54383 0.099,1.80229 0.25091,2.25818 0.1574,0.47218 0.13668,1.89303 0.25091,2.00727 0.0591,0.0591 0.19177,-0.0591 0.25091,0 0.11828,0.11828 -0.0748,0.3522 0,0.50182 0.0529,0.10579 0.21351,0.13869 0.25091,0.2509 0.10579,0.31738 -0.10579,0.68626 0,1.00364 0.0374,0.11221 0.22222,0.13616 0.25091,0.25091 0,1.77963 -0.17742,0.14698 0.25091,1.00363 0.0757,0.1515 -0.11599,0.63674 0,0.75273 0.13224,0.13224 0.3896,0.1013 0.50181,0.25091 0.76504,0.17762 0.0967,0.6952 0.25091,1.00364 0.23559,0.47118 2.08203,2.36673 2.50909,2.50908 0.9411,0.3137 6.87634,1.20365 7.77818,0.75273 0.51118,-0.25559 1.54892,-0.69807 2.00727,-1.00364 0.33814,-0.22543 0.97889,-1.00363 1.25454,-1.00363"
         id="path4160" /><path
         style="fill:none;fill-opacity:1;stroke:#ffa600;stroke-width:3.4;stroke-linecap:round;stroke-linejoin:round;stroke-dasharray:none;stroke-opacity:1"
         d="m 124.19988,121.6908 c 1.15127,-1.48942 0.35334,-3.4206 0.75273,-5.01818 0.24827,-0.99308 0.46296,-1.99673 0.75273,-3.01091 0.30838,-1.07936 0.32999,-2.20498 0.75272,-3.26181 0.0439,-0.10982 0.16728,-0.16728 0.25091,-0.25091 0.16727,-0.25091 0.38982,-0.47274 0.50182,-0.75273 0.14845,-0.37112 0.20198,-1.45652 0.50182,-1.75636 0.0591,-0.0591 0.19177,0.0591 0.25091,0 0.14995,-0.14995 -0.27121,-0.50182 0.25091,-0.50182 0.59348,0 1.58139,4.3183 1.75636,5.01818 0.14907,0.59631 0.57478,1.22252 0.75272,1.75636 0.0529,0.15869 -0.0529,0.34313 0,0.50182 0.0374,0.11221 0.21351,0.1387 0.25091,0.25091 0.25195,0.75584 0.16217,1.57888 0.50182,2.25818 0.0748,0.14961 -0.0748,0.3522 0,0.50181 0.13486,0.26972 0.28859,0.5395 0.50182,0.75273 0.0591,0.0591 0.19177,-0.0591 0.25091,0 0.25894,0.25894 0.36459,0.72918 0.50181,1.00364 0.0836,0.16727 0.41819,0.0836 0.50182,0.2509 0.0748,0.14962 -0.0748,0.35221 0,0.50182 0.009,0.018 0.50182,0.1534 0.50182,0.75273"
         id="path4164" /><path
         style="fill:none;fill-opacity:1;stroke:#ffa600;stroke-width:3.4;stroke-linecap:round;stroke-linejoin:round;stroke-dasharray:none;stroke-opacity:1"
         d="m 125.20352,115.41807 c 0.3527,-0.17965 3.28298,0.22975 3.51272,0 0.0591,-0.0591 -0.0748,-0.2135 0,-0.2509 0.2898,-0.1449 1.15481,0 1.50545,0"
         id="path4166" /><path
         style="fill:none;fill-opacity:1;stroke:#ffa600;stroke-width:3.4;stroke-linecap:round;stroke-linejoin:round;stroke-dasharray:none;stroke-opacity:1"
         d="m 137.24714,103.37445 c 0,0.83636 -0.0491,1.67417 0,2.50909 0.0943,1.60268 0.69633,2.97981 1.00364,4.51636 0.0892,0.44617 0.1746,2.35648 0.25091,2.50908 0.0529,0.1058 0.2135,0.1387 0.25091,0.25091 0.27556,0.8267 -0.21166,1.91338 0,2.76 0.0907,0.36287 0.4111,0.64077 0.50181,1.00364 0.13399,0.53594 -0.17459,1.23257 0,1.75636 0.1073,0.32188 0.39453,0.68176 0.50182,1.00363 0.12546,0.37637 -0.12545,0.87818 0,1.25455 0.3067,0.92009 0.50182,1.79151 0.50182,2.75999"
         id="path4168" /><path
         style="fill:none;fill-opacity:1;stroke:#ffa600;stroke-width:3.4;stroke-linecap:round;stroke-linejoin:round;stroke-dasharray:none;stroke-opacity:1"
         d="m 139.00351,112.90898 c 1.15046,-0.56438 1.42499,-2.17772 2.25818,-3.0109 0.13224,-0.13224 0.36957,-0.11867 0.50181,-0.25091 0.10116,-0.10116 0.16418,-0.62263 0.25091,-0.75273 -0.61914,-0.75962 0.68249,-0.43158 0.75273,-0.50181 0.47817,-0.47818 0.57779,-0.86669 1.00363,-1.50546 0.43086,-0.64629 1.00364,-0.38248 1.00364,-1.25454"
         id="path4172" /><path
         style="fill:none;fill-opacity:1;stroke:#ffa600;stroke-width:3.4;stroke-linecap:round;stroke-linejoin:round;stroke-dasharray:none;stroke-opacity:1"
         d="m 150.04349,121.9417 c -1.90067,-0.88711 -3.38627,-2.45811 -5.01817,-3.76363 -0.45608,-0.36486 -0.54931,-0.95166 -1.00364,-1.25454 -0.15561,-0.10374 -0.36957,-0.11867 -0.50182,-0.25091 -0.21323,-0.21324 -0.28858,-0.5395 -0.50181,-0.75273 -0.4113,-0.41129 -1.53535,-1.06341 -1.75636,-1.50545 -0.0374,-0.0748 0.0591,-0.19177 0,-0.25091 -0.38122,-0.38121 -1.75637,-1.15714 -1.75637,-1.75636"
         id="path4178" /><path
         style="fill:none;fill-opacity:1;stroke:#ffa600;stroke-width:3.4;stroke-linecap:round;stroke-linejoin:round;stroke-dasharray:none;stroke-opacity:1"
         d="m 149.79259,111.90535 c 2.06658,0.46168 5.0636,0.0573 6.27272,-1.75636 0.79743,-1.19615 1.86311,-2.47715 1.50545,-4.26545 -0.4589,-2.2945 -3.71616,-2.30791 -5.51999,-2.00728 -0.0502,0.008 -1.96033,0.97235 -2.00728,1.00364 -0.10615,0.0708 -0.72367,0.88743 -0.75272,1.00364 -0.0609,0.24341 0.0689,0.51147 0,0.75272 -0.10276,0.35965 -0.38354,0.6488 -0.50182,1.00364 -0.369,1.10701 -0.27547,2.15993 0,3.26181 0.0203,0.0811 -0.0591,0.19177 0,0.25091 0.2957,0.2957 0.81662,0.3787 1.00364,0.75273 0.26448,0.52896 0.12261,1.17905 0.2509,1.75636 0.24233,1.09046 0.15756,0.0642 0.50182,0.75273 0.49403,0.98805 0.77606,1.77386 1.75636,2.50909 0.14962,0.11221 0.36958,0.11867 0.50182,0.2509 0.0591,0.0591 -0.0748,0.21351 0,0.25091 0.14962,0.0748 0.33954,-0.0406 0.50182,0 0.36287,0.0907 0.64077,0.41111 1.00364,0.50182 0.79649,0.19913 4.78242,0.4353 5.51999,0.25091 0.11475,-0.0287 0.1387,-0.21351 0.25091,-0.25091 0.47606,-0.15869 1.01338,0.0984 1.50545,0 0.3214,-0.0643 0.3383,-0.25091 0.75273,-0.25091"
         id="path4182" /><path
         style="fill:none;fill-opacity:1;stroke:#ffa600;stroke-width:3.4;stroke-linecap:round;stroke-linejoin:round;stroke-dasharray:none;stroke-opacity:1"
         d="m 59.4654,129.97079 c 5.510289,2.44902 -1.696524,-0.6283 5.770903,2.00727 0.284361,0.10036 0.470371,0.39593 0.752727,0.50182 0.808868,0.30332 3.33307,0.43005 3.763632,0.50181 0.184472,0.0308 0.320384,0.20555 0.501816,0.25091 1.342139,0.33554 2.429971,0.30817 3.763635,0.75273 0.290745,0.0969 0.711729,-0.073 1.003636,0 0.478954,0.11974 0.860811,0.30495 1.254543,0.50182 0.200726,0.10036 0.552,-0.10037 0.752726,0 0.105794,0.0529 0.136163,0.22222 0.25091,0.25091 0.243416,0.0609 0.509309,-0.0609 0.752726,0 0.114747,0.0287 0.1387,0.2135 0.25091,0.25091 0.396721,0.13223 0.841224,-0.0636 1.254543,0 0.843007,0.12969 1.661379,0.40762 2.509088,0.50181 1.809491,0.20106 3.704363,0.0693 5.519994,0.25091 1.090608,0.10906 2.189438,0.34862 3.261816,0.50182 0.5164,0.0738 1.477443,-0.17661 2.007272,0 0.112209,0.0374 0.136159,0.22222 0.250909,0.25091 0.789625,0.1974 1.935697,0 2.759996,0 2.676361,0 5.352718,0 8.029078,0 3.25633,0 6.88374,0.37961 10.03636,-0.25091 1.84705,-0.36941 3.89758,0.23416 5.7709,0 2.02288,-0.25286 0.51243,-0.29749 2.76,-0.50182 1.20373,-0.10943 2.5762,0.23749 3.76363,0 0.7529,-0.15058 1.46206,-0.62004 2.25818,-0.75272 0.83637,-0.1394 0.20909,0.20908 1.25455,0 0.18338,-0.0367 0.32038,-0.20556 0.50181,-0.25091 0.8824,-0.2206 1.86896,-0.10241 2.76,-0.25091 1.48284,-0.24714 0.58453,-0.31586 2.25818,-0.50182 0.7539,-0.0838 1.52963,-0.0688 2.25818,-0.25091 0.51317,-0.12829 0.99229,-0.37353 1.50546,-0.50182 0.30886,-0.0772 0.7025,0.10038 1.00363,0 0.28608,-0.0954 0.46665,-0.40646 0.75273,-0.50182 0.4002,-0.1334 0.8241,-0.10742 1.25454,-0.2509 0.44126,-0.14709 2.50909,-0.61083 2.50909,-1.00364"
         id="path4184" /><path
         style="fill:none;fill-opacity:1;stroke:#ffa600;stroke-width:3.4;stroke-linecap:round;stroke-linejoin:round;stroke-dasharray:none;stroke-opacity:1"
         d="m 59.716307,57.709037 c 1.194911,0.337027 1.593466,1.604164 2.509088,2.258179 1.026451,0.733179 2.258344,1.204492 3.261816,2.00727 0.326546,0.261236 0.707937,0.457028 1.003636,0.752729 0.132241,0.132239 0.0953,0.398079 0.250909,0.501816 0.139179,0.09279 0.362638,-0.09279 0.501817,0 0.155607,0.103738 0.118668,0.369578 0.25091,0.501817 0.05914,0.05914 0.191767,-0.05914 0.250907,0 0.334846,0.334846 -1.274578,2.252562 -1.505453,2.509089 -0.712124,0.79125 -1.576692,1.440397 -2.258179,2.258182 -0.193051,0.231658 -0.288587,0.539493 -0.501817,0.752726 -0.132241,0.132239 -0.369578,0.118668 -0.501819,0.250907 -0.132239,0.132241 -0.138697,0.352205 -0.250907,0.501819 -0.867532,1.156708 -2.024732,2.392363 -3.261815,3.010906 -0.492228,0.246112 0.01921,0.501816 -0.50182,0.501816"
         id="path4186" /><path
         style="fill:none;fill-opacity:1;stroke:#ffa600;stroke-width:3.4;stroke-linecap:round;stroke-linejoin:round;stroke-dasharray:none;stroke-opacity:1"
         d="m 58.96358,65.73812 c 3.405923,-0.303368 5.94773,-2.509089 9.283629,-2.509089"
         id="path4188" /><path
         style="fill:none;fill-opacity:1;stroke:#ffa600;stroke-width:3.4;stroke-linecap:round;stroke-linejoin:round;stroke-dasharray:none;stroke-opacity:1"
         d="m 141.7635,56.203585 c -2.3358,0.295219 -3.87143,2.315253 -5.5177,3.778299 -1.18578,1.753135 1.87753,2.618954 2.27344,4.258026 1.17235,1.346403 1.61907,3.220701 3.17184,4.277922 1.4192,0.910056 1.86887,2.647044 3.08329,3.743932"
         id="path4190" /><path
         style="fill:none;fill-opacity:1;stroke:#ffa600;stroke-width:3.4;stroke-linecap:round;stroke-linejoin:round;stroke-dasharray:none;stroke-opacity:1"
         d="m 136.24351,60.218126 c 1.80615,1.094975 3.703,2.005926 5.59734,2.905839 2.25636,0.551651 4.0352,2.082196 6.19538,2.865065"
         id="path4196" /></g><path
       style="fill:none;fill-opacity:1;stroke:#ff6361;stroke-width:6.49146;stroke-linecap:round;stroke-linejoin:round;stroke-dasharray:none;stroke-opacity:1"
       d="m 779.19741,542.38487 c 2.00971,13.68138 10.10754,25.23348 15.45231,37.81452 4.45765,8.83575 11.82147,15.6574 18.52338,22.65033 5.5087,6.70378 12.59077,12.30789 19.38716,17.85156 8.83082,5.04692 16.77971,11.19967 26.68132,13.91655 8.80426,4.62513 18.41039,7.46053 28.12095,9.50167 12.44447,2.98909 25.21189,5.07514 38.10245,5.2788 14.18804,-0.63524 28.34049,-2.60949 42.22941,-5.08688 15.73038,-5.90816 33.54411,-7.3136 46.83631,-18.33147 7.8798,-3.87318 14.0943,-9.95005 21.6905,-14.10854 14.0816,-13.80986 26.5265,-29.23257 34.4751,-47.47474 7.7895,-13.92867 5.0019,-30.68157 7.0829,-46.00589 -0,-9.4609 -2.4593,-18.67524 -5.0868,-27.54512 -0.4533,-10.54223 -8.957,-18.59974 -13.3449,-27.85585 -4.469,-7.40178 -9.304,-14.66278 -15.641,-20.42012 -3.2486,-4.16186 -8.3959,-7.09361 -12.2849,-10.94126 -3.6671,-3.64098 -8.2617,-7.82692 -14.0125,-9.59759 -11.7557,-4.42286 -20.75526,-13.65358 -33.01568,-15.54811 -6.87465,-2.06244 -15.00437,-4.19029 -22.34778,-6.12676 -11.39561,0.38595 -22.19275,-3.94061 -33.68263,-2.73969 -13.09685,1.04939 -26.67965,0.0565 -39.0128,5.5289 -11.32849,1.11598 -21.84463,5.02742 -31.69863,10.6423 -8.29528,1.63497 -15.45503,5.70954 -21.85261,10.99416 -12.99404,6.38059 -23.28301,16.82198 -31.21801,28.5034 -3.79032,5.18198 -8.59661,9.36979 -11.26563,15.06609 -7.0428,9.52756 -8.57502,21.75155 -11.94429,32.84677 -4.18675,12.26314 -1.52559,25.21177 -2.46214,37.9236 0.29764,1.0288 0.10451,2.19122 0.28851,3.26337 z"
       id="path15860" /><path
       style="fill:none;fill-opacity:1;stroke:#ff6361;stroke-width:6.49146;stroke-linecap:round;stroke-linejoin:round;stroke-dasharray:none;stroke-opacity:1"
       d="m 1078.6214,538.93117 c -0.091,0.72389 -0.181,1.44779 -0.2715,2.17169 0,0.45244 0.053,0.90797 0,1.35731 -0.038,0.32712 -0.2213,0.62457 -0.2714,0.95011 -0.1639,1.06501 0,2.19194 -0.1358,3.25753 -0.018,0.14197 -0.1199,0.26499 -0.1357,0.40719 -0.104,0.93583 -0.019,1.91729 -0.1357,2.85034 -0.023,0.18511 -0.1152,0.35752 -0.1358,0.54293 -0.079,0.71441 0.06,1.45528 0,2.17167 -0.049,0.59304 -0.1976,1.17402 -0.2714,1.76451 -0.073,0.58535 -0.053,1.18052 -0.1357,1.7645 -0.042,0.29626 -0.2292,0.65384 -0.2715,0.9501 -0.044,0.31038 0.044,0.63974 0,0.95012 -0.02,0.14164 -0.1122,0.26607 -0.1357,0.4072 -0.081,0.48589 -0.2012,1.0008 -0.2715,1.49303 -0.047,0.32759 -0.014,0.77969 -0.1358,1.08584 -0.061,0.15146 -0.2266,0.25034 -0.2714,0.40718 -0.05,0.17402 0.04,0.36627 0,0.54293 -0.1048,0.47169 -0.4096,0.89071 -0.5429,1.35731 -0.4613,1.61464 0.077,-0.3276 -0.1357,0.95011 -0.08,0.47858 -0.2673,1.02641 -0.4072,1.49304 -0.1453,0.48423 -0.3977,1.00879 -0.543,1.49303 -0.1326,0.44194 -0.1713,0.90691 -0.2714,1.3573 -0.081,0.3642 -0.1405,0.73652 -0.2715,1.08585 -0.071,0.18945 -0.2159,0.34838 -0.2714,0.54292 -0.037,0.13051 0.022,0.27331 0,0.4072 -0.1249,0.74924 -0.6867,1.4056 -0.8144,2.17169 -0.097,0.58314 -0.1805,1.19784 -0.4072,1.76449 -0.4728,1.18195 -1.0188,2.42347 -1.3573,3.66471 -0.1026,0.37603 -0.1414,1.10276 -0.2715,1.49304 -0.064,0.19196 -0.2004,0.35347 -0.2714,0.54293 -0.3704,0.98754 -0.524,2.10541 -0.8144,3.1218 -0.186,0.65098 -0.2676,1.41637 -0.5429,2.03595 -0.3345,0.75247 -0.7181,1.35946 -0.9502,2.17169 -0.2803,0.98126 -0.594,1.90081 -0.95,2.85035 -0.066,0.17466 -0.045,0.37985 -0.1358,0.54291 -0.1407,0.25325 -0.4134,0.41954 -0.5429,0.67866 -0.061,0.1214 0.037,0.27668 0,0.40719 -0.1816,0.63559 -0.6559,1.31167 -0.9501,1.90023 -0.4557,0.91122 -1.1738,1.66895 -1.6288,2.57887 -0.4145,0.82894 -0.9046,1.70765 -1.4931,2.44315 -0.1607,0.5877 -0.7455,0.79616 -1.0858,1.22158 -0.2038,0.25477 -0.3391,0.55962 -0.5429,0.81438 -0.3651,0.4563 -0.2865,0.15072 -0.8144,0.67866 -0.4312,0.43123 -0.6981,1.0277 -1.0858,1.49304 -0.4873,0.58469 -0.9799,1.2 -1.4931,1.76449 -0.6685,0.73538 -1.389,1.41701 -2.0359,2.17169 -0.4828,0.56328 -0.8594,1.21121 -1.3573,1.76449 l -3.2255,4.71716 c -0.4427,0.59645 -3.1857,4.2361 -5.4213,6.83616 -0.8374,0.97385 -6.5367,6.60159 -7.5051,7.44895 -2.3104,2.02157 1.3607,-1.2581 -1.2216,0.67866 -0.181,0.13573 -0.2391,0.39159 -0.4072,0.54292 -1.5674,1.41064 -0.3435,0.0862 -1.6288,1.08585 -0.202,0.15712 -0.343,0.38304 -0.5429,0.54292 -0.4313,0.345 -0.9214,0.61105 -1.3573,0.95011 -0.6861,0.53357 -1.3761,1.06316 -2.036,1.62877 -0.1943,0.16656 -0.3409,0.38579 -0.5429,0.54291 -0.3863,0.30046 -0.8352,0.51394 -1.2215,0.81439 -0.4301,0.33448 -0.7683,0.78364 -1.2216,1.08584 -1.6859,1.1239 0.2564,-0.58819 -1.2216,0.67865 -0.2915,0.24985 -0.502,0.59125 -0.8144,0.81439 -0.1646,0.11761 -0.3783,0.15385 -0.5429,0.27146 -0.1562,0.11157 -0.2597,0.28431 -0.4072,0.40719 -0.3738,0.31152 -0.8478,0.50287 -1.2216,0.81438 -0.3699,0.30825 -0.7101,0.64956 -1.0859,0.95012 -0.4532,0.36258 -1.0178,0.49763 -1.4929,0.81438 -0.4534,0.3022 -0.7596,0.7971 -1.2216,1.08585 -0.1582,0.0989 -0.3698,0.0665 -0.543,0.13573 -0.1182,0.0473 -1.7971,1.56551 -2.0359,1.76449 -0.2506,0.20886 -0.5596,0.33911 -0.8144,0.54292 -0.1999,0.15988 -0.33,0.40096 -0.5429,0.54292 -0.9102,0.60681 -0.1967,-0.11175 -1.0859,0.67866 -0.2391,0.21254 -0.4378,0.46798 -0.6786,0.67865 -0.7146,0.62525 -1.6203,0.9459 -2.4432,1.3573 -0.4077,0.20389 -0.7096,0.59939 -1.0858,0.81439 -0.2116,0.12088 -0.472,0.14233 -0.6787,0.27146 -0.1627,0.10174 -0.2444,0.30545 -0.4071,0.40719 -0.2066,0.12913 -0.4525,0.18097 -0.6787,0.27146 -0.1358,0.13573 -0.251,0.29563 -0.4072,0.40719 -0.3358,0.23987 -0.8668,0.36557 -1.2216,0.54293 -0.4657,0.23286 -0.9043,0.55556 -1.3573,0.81438 -0.6416,0.36667 -1.4142,0.57706 -2.0359,0.95011 -0.1098,0.0658 -0.1617,0.20562 -0.2715,0.27146 -0.5419,0.32512 -1.1964,0.53034 -1.7645,0.81438 -0.5526,0.2763 -1.0625,0.69846 -1.6287,0.95012 -0.1705,0.0758 -0.366,0.0767 -0.54295,0.13573 -0.32062,0.10686 -0.86115,0.47083 -1.22159,0.54292 -0.13312,0.0266 -0.2741,-0.0266 -0.40723,0 -0.3494,0.0699 -0.73315,0.30644 -1.0858,0.40719 -0.47512,0.13574 -0.88701,0.19308 -1.35731,0.27147 -0.5098,0.085 -1.00694,0.39708 -1.49304,0.54292 -1.06092,0.31827 -2.18254,0.54562 -3.25753,0.81438 -0.9795,0.24487 -1.9034,0.63447 -2.85034,0.95011 -0.50185,0.16728 -0.89512,0.66033 -1.35731,0.81439 -0.48162,0.16056 -0.0687,-0.21996 -0.54291,0.13573 -0.1024,0.0768 -0.15265,0.22391 -0.2715,0.27146 -0.12599,0.0504 -0.27838,-0.0429 -0.40718,0 -0.67863,0.22622 -0.75404,0.45243 -1.35731,0.67865 -0.17467,0.0655 -0.37142,0.0623 -0.5429,0.13573 -0.68707,0.29445 -1.31474,0.7097 -2.03594,0.95011 -1.06552,0.35517 -2.17243,0.64007 -3.25753,0.95011 -1.40475,0.40136 0.67273,-0.18766 -0.81441,0.4072 -0.084,0.0336 -0.18273,-0.0177 -0.27145,0 -0.47874,0.0957 -1.02971,0.25275 -1.49303,0.40719 -0.21136,0.0704 -0.79997,0.34365 -1.08586,0.40719 -0.70849,0.15745 -1.47184,0.21633 -2.17167,0.40719 -0.63454,0.17306 -1.23408,0.45965 -1.90027,0.54292 -0.94451,0.11807 -1.90113,0.18518 -2.85029,0.27146 -0.63503,0.0577 -1.2791,0.26916 -1.90025,0.4072 -1.13248,0.25166 -2.2655,0.40195 -3.39326,0.54292 -0.6118,0.0765 -1.45361,0.23249 -2.03596,0.40719 -0.94823,0.28447 -0.12678,0.28731 -1.08584,0.40719 -2.01103,0.25138 -3.96059,0.81926 -5.97214,1.22158 -0.32299,0.0646 -0.62522,0.21731 -0.95012,0.27145 -0.94803,0.15801 -1.90491,0.21811 -2.85034,0.4072 -0.59765,0.11953 -1.16848,0.33269 -1.76449,0.40719 -0.44895,0.0561 -0.90837,-0.0561 -1.35731,0 -0.14197,0.0177 -0.26606,0.1122 -0.40719,0.13573 -0.96227,0.16038 -2.01622,-0.0882 -2.98607,0 -1.67755,0.1525 -3.46371,0.2769 -5.15776,0.13573 -1.21502,-0.10125 -2.44116,-0.27146 -3.66472,-0.27146 -0.45048,0 -0.65248,0.0491 -1.08585,0.13573 -0.37703,0.0754 -0.22621,-0.11311 -0.67865,0 -0.0621,0.0155 -0.0736,0.12021 -0.13573,0.13573 -0.26336,0.0658 -0.54661,-0.0446 -0.81438,0 -1.07194,0.17866 -2.15427,0.21454 -3.25754,0 -0.19485,0 -0.51738,-0.0403 -0.67865,0 -0.0621,0.0155 -0.073,0.12318 -0.13573,0.13573 -0.17746,0.0355 -0.36269,-0.0164 -0.54292,0 -0.82863,0.0753 -1.60455,0.20024 -2.44315,0.13573 -1.05601,-0.0812 -2.07976,-0.41266 -3.1218,-0.54292 -0.35915,-0.0449 -0.72611,0.04 -1.08584,0 -0.22929,-0.0255 -0.4489,-0.11485 -0.67865,-0.13573 -1.12111,-0.10192 -2.27045,0.0802 -3.39327,0 -0.23011,-0.0164 -0.4489,-0.11485 -0.67865,-0.13573 -0.8091,-0.0736 -1.63498,-0.0549 -2.44315,-0.13573 -0.4591,-0.0459 -0.87646,-0.33604 -1.35731,-0.27146 -0.72225,-0.0556 -1.45532,-0.0334 -2.17168,-0.13574 -0.14164,-0.0202 -0.26556,-0.11549 -0.4072,-0.13572 -0.31352,-0.0448 -0.63659,0.0448 -0.95011,0 -0.45906,-0.0656 -0.90578,-0.20696 -1.3573,-0.27146 -0.35831,-0.0512 -0.72753,0.0512 -1.08585,0 -0.28326,-0.0405 -0.53213,-0.2244 -0.81438,-0.27147 -0.13388,-0.0223 -0.27331,0.0223 -0.40719,0 -0.59673,-0.0995 -1.16722,-0.41019 -1.7645,-0.54292 -1.29956,-0.28879 -2.65441,-0.45834 -3.93618,-0.81438 -0.77247,-0.21458 -1.5119,-0.57921 -2.30742,-0.67865 -2.77175,-0.34647 -5.50703,-1.06649 -8.27956,-1.49304 -0.17887,-0.0275 -0.36376,0.0256 -0.54292,0 -0.32607,-0.0466 -0.62713,-0.20686 -0.95012,-0.27146 -0.7253,-0.14506 -1.47068,-0.23194 -2.17168,-0.40719 -0.66313,-0.16578 -1.38021,-0.20227 -2.03596,-0.40719 -0.50546,-0.15796 -0.99065,-0.37546 -1.49303,-0.54293 -0.35395,-0.11797 -0.73652,-0.14046 -1.08585,-0.27145 -0.63848,-0.23944 -1.23516,-0.63301 -1.90022,-0.81439 -0.26551,-0.0724 -0.55575,-0.0417 -0.81439,-0.13573 -0.24793,-0.0902 -0.43072,-0.31703 -0.67865,-0.40719 -0.25864,-0.0941 -0.5533,-0.0487 -0.81438,-0.13573 -0.28793,-0.096 -0.53423,-0.29046 -0.81439,-0.40719 -0.74824,-0.31177 -1.55031,-0.42629 -2.30742,-0.67865 -0.19195,-0.064 -0.35347,-0.20042 -0.54291,-0.27147 -0.56519,-0.21194 -1.1679,-0.3154 -1.7645,-0.40719 -0.17887,-0.0275 -0.36891,0.0497 -0.54292,0 -0.94305,-0.26944 0.11313,-0.29125 -0.81439,-0.40719 -0.22447,-0.0281 -0.45782,0.0491 -0.67865,0 -0.19752,-0.0439 -0.34912,-0.21332 -0.54292,-0.27146 -0.67123,-0.20136 -1.37686,-0.29576 -2.03596,-0.54292 -0.15274,-0.0573 -0.25725,-0.20721 -0.40719,-0.27146 -0.55438,-0.23759 -1.19075,-0.35168 -1.7645,-0.54292 -0.67167,-0.2239 -1.37898,-0.41587 -2.03595,-0.67865 -0.67866,-0.27147 0.27145,0 -0.81439,-0.4072 -0.17466,-0.0655 -0.37146,-0.0623 -0.54292,-0.13573 -0.33527,-0.14369 -0.61678,-0.39478 -0.95012,-0.54292 -1.12768,-0.50119 -2.2547,-1.01864 -3.39326,-1.49303 -0.61408,-0.25588 -1.4955,-0.64534 -2.17168,-0.81439 -0.82858,-0.20714 0.46904,0.35614 -0.67865,-0.13573 -0.18598,-0.0797 -0.34913,-0.21332 -0.54293,-0.27146 -0.2636,-0.0791 -0.55574,-0.0417 -0.81438,-0.13573 -0.24793,-0.0902 -0.44269,-0.28921 -0.67866,-0.40719 -0.65637,-0.32819 -1.37055,-0.51865 -2.03595,-0.81438 -0.14907,-0.0663 -0.25812,-0.20521 -0.40719,-0.27147 -0.9229,-0.41017 -1.92271,-0.67356 -2.85034,-1.08584 -0.60073,-0.26699 -1.07902,-0.60652 -1.62877,-0.95011 -0.59693,-0.37308 -1.27993,-0.63997 -1.90022,-0.95012 -0.19847,-0.0992 -0.82716,-0.58643 -0.95012,-0.67865 -0.16685,-0.0834 -0.37985,-0.0451 -0.54292,-0.13573 -0.55116,-0.3062 -0.76583,-0.70605 -1.22158,-1.08585 -0.31874,-0.26562 -0.74086,-0.44866 -1.08584,-0.67865 -0.48727,-0.32484 -0.90307,-0.72246 -1.3573,-1.08584 -0.52965,-0.42372 -1.10075,-0.79915 -1.62877,-1.22157 -0.079,-0.0632 -0.19992,-0.0642 -0.27146,-0.13573 -0.11535,-0.11535 -0.15611,-0.29185 -0.27146,-0.4072 -0.1024,-0.1024 -0.67715,-0.56887 -0.81438,-0.67865 -0.237,-0.1896 -0.57739,-0.21759 -0.81439,-0.40719 -0.27593,-0.22074 -0.27614,-0.69917 -0.67865,-0.81438 -0.34519,-0.25105 -0.74065,-0.42761 -1.08584,-0.67866 -0.77699,-0.56507 -1.56248,-1.29073 -2.30742,-1.90022 -0.99519,-0.81424 -0.0809,-0.0505 -1.08584,-0.67865 -0.87147,-0.54467 -1.59829,-1.33699 -2.44315,-1.90023 -0.16836,-0.11224 -0.37828,-0.15386 -0.54293,-0.27147 -0.15619,-0.11156 -0.25099,-0.29562 -0.40719,-0.40718 -0.49732,-0.35524 -1.12011,-0.5092 -1.62876,-0.81439 -0.24842,-0.14904 -0.43299,-0.38938 -0.67865,-0.54292 -0.52289,-0.3268 -1.11875,-0.61009 -1.62877,-0.95011 -0.24105,-0.1607 -0.43761,-0.38223 -0.67866,-0.54293 -0.77999,-0.51999 -1.68033,-0.94817 -2.44314,-1.49303 -0.1562,-0.11157 -0.24054,-0.31196 -0.40719,-0.40719 -0.16197,-0.0926 -0.38096,-0.0432 -0.54293,-0.13573 -0.36731,-0.2099 -0.60897,-0.69426 -0.95011,-0.95011 -0.65841,-0.49381 -1.30137,-1.20554 -1.76449,-1.90023 -0.42728,-0.64092 -1.13045,-1.16652 -1.62877,-1.7645 -0.3046,-0.36552 -0.47847,-0.88566 -0.81438,-1.22157 -0.11536,-0.11535 -0.29185,-0.15612 -0.4072,-0.27146 -0.11534,-0.11535 -0.16703,-0.28188 -0.27146,-0.4072 -0.36714,-0.44056 -0.85443,-0.781 -1.22157,-1.22157 -0.10443,-0.12532 -0.15611,-0.29184 -0.27147,-0.40719 -0.0715,-0.0715 -0.19052,-0.075 -0.27145,-0.13573 -0.32773,-0.24579 -0.2758,-0.34475 -0.54293,-0.67866 -0.27356,-0.34195 -0.6532,-0.51747 -0.95011,-0.81438 -0.0715,-0.0715 -0.0642,-0.19992 -0.13573,-0.27146 -0.10756,-0.10756 -1.33123,-1.0077 -1.35731,-1.08584 -0.0286,-0.0859 0.0502,-0.19618 0,-0.27147 -0.0561,-0.0842 -0.18097,-0.0905 -0.27146,-0.13572 l -0.27145,-0.40719 c -1.0155,-1.77712 -2.5572,-3.12211 -3.80047,-4.75058 -0.22621,-0.45243 -0.4184,-0.92355 -0.67865,-1.3573 -0.38855,-0.6476 -1.21955,-1.62675 -1.76449,-2.17169 -0.15996,-0.15996 -0.38297,-0.24723 -0.54293,-0.40718 -0.43033,-0.43035 -0.82927,-1.02228 -1.22157,-1.49304 -0.59673,-0.71607 -1.0342,-1.64018 -1.49303,-2.44315 -0.53146,-0.93005 -0.008,0.0348 -0.54293,-0.67865 -0.61236,-0.81648 -1.3821,-2.07937 -1.90022,-2.98608 -0.41404,-0.72457 -0.60474,-1.63387 -1.08585,-2.30742 -0.11157,-0.1562 -0.29562,-0.25099 -0.40719,-0.40718 -0.46648,-0.65308 -0.82097,-1.47061 -1.22158,-2.1717 -0.25394,-0.44441 -0.32032,-0.91211 -0.54291,-1.35731 -0.38726,-0.7745 -0.86,-1.51192 -1.22158,-2.30741 -0.49456,-1.08806 -0.0572,-0.2787 -0.54292,-1.49302 -0.18787,-0.46967 -0.48606,-0.88957 -0.67865,-1.35732 -0.41738,-1.01361 -0.6546,-2.11555 -1.08585,-3.1218 -0.0797,-0.18598 -0.18097,-0.36194 -0.27146,-0.54293 -0.0905,-0.13573 -0.20721,-0.25724 -0.27146,-0.40718 -0.14697,-0.34292 -0.14046,-0.73652 -0.27147,-1.08585 -0.23488,-0.62639 -0.65398,-1.17224 -0.95011,-1.7645 -0.21792,-0.43584 -0.34127,-0.91368 -0.54293,-1.35729 -0.4258,-0.9368 -0.82626,-1.96529 -1.35729,-2.85035 -0.26253,-0.43754 -0.3488,-0.43244 -0.54292,-0.95011 -0.23133,-0.61685 -0.35468,-1.27272 -0.54293,-1.90024 -0.75507,-2.51688 0.27145,1.25548 -0.67864,-1.35729 -0.094,-0.25865 -0.0727,-0.54649 -0.13575,-0.81438 -0.11815,-0.50215 -0.26912,-0.996 -0.40718,-1.49304 -0.24214,-0.87172 -0.55605,-1.71775 -0.81438,-2.57887 -0.39197,-1.30658 -0.5178,-2.73725 -0.81439,-4.07192 -0.16176,-0.7279 -0.37527,-1.44524 -0.54292,-2.17169 -0.1523,-0.66001 -0.19316,-1.39391 -0.40718,-2.03596 -0.064,-0.19195 -0.22241,-0.34663 -0.27148,-0.54292 -0.0439,-0.17557 0.0225,-0.36334 0,-0.54292 -0.0517,-0.41391 -0.27308,-0.79635 -0.27145,-1.22159 -0.02,-0.17987 0.0439,-0.36735 0,-0.54291 -0.0491,-0.1963 -0.21588,-0.34837 -0.27146,-0.54293 -0.0373,-0.1305 0.0223,-0.2733 0,-0.40718 -0.0686,-0.41174 -0.20284,-0.80986 -0.27147,-1.22158 -0.0805,-0.48307 0.0541,-1.00602 0,-1.49303 -0.16112,-1.45009 -0.27471,-2.88615 -0.40718,-4.34338 -0.0855,-0.94079 0.1043,-1.91168 0,-2.85034 -0.0206,-0.1854 -0.11258,-0.35782 -0.13573,-0.54293 -0.0945,-0.75603 0.10772,-1.55338 0,-2.3074 -0.13989,-0.97927 -0.31643,-1.98766 -0.4072,-2.98608 -0.11905,-1.30955 0.0432,-2.64044 0.13573,-3.93619 0.0609,-0.85324 -0.0774,-1.72689 0,-2.57887 0.0249,-0.27408 0.1129,-0.54014 0.13573,-0.81438 0.0526,-0.63123 -0.0421,-1.26823 0,-1.90024 0.0579,-0.86876 0.3351,-1.7137 0.4072,-2.57887 0.0674,-0.80876 -0.0674,-1.63438 0,-2.44315 0.0229,-0.27425 0.11289,-0.54012 0.13572,-0.81438 0.1426,-1.71059 -0.21194,-3.46771 0.13573,-5.15776"
       id="path15866"
       sodipodi:nodetypes="cccsccsscssscscsscssssssscssssssssscscsscssssssccsscsssssssssssssssssssssssssscssssssssssssssssssssssscssssssssssssssssssssssscsssssssssscsssssssssscsssssssssssssssssssssssssssssssssssscssssssssscssssssssssssssssssssssssssscccssssssssssssssscssssssscsssssssscsssssssssssssssssc" /></g></svg>
