<?xml version="1.0" encoding="UTF-8" standalone="no"?>
<!-- Created with Inkscape (http://www.inkscape.org/) -->

<svg
   width="320mm"
   height="320mm"
   viewBox="0 0 320 319.99999"
   version="1.1"
   id="svg5"
   xml:space="preserve"
   inkscape:version="1.2.2 (732a01da63, 2022-12-09)"
   sodipodi:docname="first_pancake_logo.svg"
   inkscape:export-filename="first_pancake_standin.png"
   inkscape:export-xdpi="20"
   inkscape:export-ydpi="20"
   xmlns:inkscape="http://www.inkscape.org/namespaces/inkscape"
   xmlns:sodipodi="http://sodipodi.sourceforge.net/DTD/sodipodi-0.dtd"
   xmlns="http://www.w3.org/2000/svg"
   xmlns:svg="http://www.w3.org/2000/svg"><sodipodi:namedview
     id="namedview7"
     pagecolor="#221f36"
     bordercolor="#000000"
     borderopacity="0.25"
     inkscape:showpageshadow="2"
     inkscape:pageopacity="0"
     inkscape:pagecheckerboard="0"
     inkscape:deskcolor="#d1d1d1"
     inkscape:document-units="mm"
     showgrid="false"
     inkscape:zoom="0.37282198"
     inkscape:cx="792.60348"
     inkscape:cy="643.73887"
     inkscape:window-width="1280"
     inkscape:window-height="961"
     inkscape:window-x="-8"
     inkscape:window-y="45"
     inkscape:window-maximized="1"
     inkscape:current-layer="layer1" /><defs
     id="defs2" /><g
     inkscape:label="Layer 1"
     inkscape:groupmode="layer"
     id="layer1"
     transform="translate(-772.51466,-394.14428)"><g
       id="g13925"
       transform="matrix(2.0212602,0,0,2.0212602,723.16961,354.52506)"
       style="stroke:#ffa600;stroke-opacity:1"><path
         style="fill:none;fill-opacity:1;stroke:#ffa600;stroke-width:3.4;stroke-linecap:round;stroke-linejoin:round;stroke-dasharray:none;stroke-opacity:1"
         d="m 77.029018,55.701765 c 1.474594,4.822953 1.431412,9.874562 1.561087,14.894505 l 0.195276,0.912754 0.501817,0.752726"
         id="path4104" /><path
         style="fill:none;fill-opacity:1;stroke:#ffa600;stroke-width:3.4;stroke-linecap:round;stroke-linejoin:round;stroke-dasharray:none;stroke-opacity:1"
         d="m 68.999935,55.952675 c 4.20176,-0.05948 8.643319,0.111154 12.665305,0.459564 0.868843,-0.357142 1.882929,-0.33486 2.640134,-0.961383"
         id="path4106" /><path
         style="fill:none;fill-opacity:1;stroke:#ffa600;stroke-width:3.4;stroke-linecap:round;stroke-linejoin:round;stroke-dasharray:none;stroke-opacity:1"
         d="m 91.581731,55.450856 c 0.449691,5.38891 -1.162377,10.776399 0.501817,16.058168"
         id="path4108" /><path
         style="fill:none;fill-opacity:1;stroke:#ffa600;stroke-width:3.4;stroke-linecap:round;stroke-linejoin:round;stroke-dasharray:none;stroke-opacity:1"
         d="m 92.08355,62.978122 c 4.329878,-0.520147 8.51538,1.143284 12.79635,0.752728"
         id="path4110" /><path
         style="fill:none;fill-opacity:1;stroke:#ffa600;stroke-width:3.4;stroke-linecap:round;stroke-linejoin:round;stroke-dasharray:none;stroke-opacity:1"
         d="m 107.13808,56.203585 c -1.7803,3.669896 -2.45073,8.721253 -1.36576,12.372627 l 0.96412,2.379655"
         id="path4112"
         sodipodi:nodetypes="ccc" /><path
         style="fill:none;fill-opacity:1;stroke:#ffa600;stroke-width:3.4;stroke-linecap:round;stroke-linejoin:round;stroke-dasharray:none;stroke-opacity:1"
         d="m 124.45079,55.199949 c -3.985,0.710568 -12.1974,-1.208371 -9.95709,5.325079 -0.50336,4.092168 0.32303,11.650082 6.25536,9.716138 3.1965,-0.55115 7.30009,1.263371 9.97445,-0.990325"
         id="path4114"
         sodipodi:nodetypes="csssssssssssssssc" /><path
         style="fill:none;fill-opacity:1;stroke:#ffa600;stroke-width:3.4;stroke-linecap:round;stroke-linejoin:round;stroke-dasharray:none;stroke-opacity:1"
         d="m 115.41807,63.479941 c 2.34182,0 4.68363,0 7.02545,0"
         id="path4116" /><path
         style="fill:none;fill-opacity:1;stroke:#ffa600;stroke-width:3.4;stroke-linecap:round;stroke-linejoin:round;stroke-dasharray:none;stroke-opacity:1"
         d="m 62.476305,94.843546 c -0.08277,-3.996658 0.251731,-8.019409 -0.380348,-11.966087 -0.301212,-4.717095 4.91837,-5.179843 8.613748,-4.883963 l 1.050229,0.03916"
         id="path4124" /><path
         style="fill:none;fill-opacity:1;stroke:#ffa600;stroke-width:3.4;stroke-linecap:round;stroke-linejoin:round;stroke-dasharray:none;stroke-opacity:1"
         d="m 67.243573,86.312646 c -1.534759,0.198937 -3.06476,-0.430693 -4.516358,0.25091"
         id="path4128" /><path
         style="fill:none;fill-opacity:1;stroke:#ffa600;stroke-width:3.4;stroke-linecap:round;stroke-linejoin:round;stroke-dasharray:none;stroke-opacity:1"
         d="m 80.541743,79.287197 c 4.166625,-0.454279 8.36439,-0.24996 12.545443,-0.250907"
         id="path4130" /><path
         style="fill:none;fill-opacity:1;stroke:#ffa600;stroke-width:3.4;stroke-linecap:round;stroke-linejoin:round;stroke-dasharray:none;stroke-opacity:1"
         d="m 86.061737,80.290833 c 0.936952,2.758873 1.056483,6.165057 1.505452,6.52363 0.765703,3.975346 1.742881,8.093343 -3.763632,7.527266 -1.751358,0.108935 -3.501256,0.347454 -5.269086,0.25091"
         id="path4132" /><path
         style="fill:none;fill-opacity:1;stroke:#ffa600;stroke-width:3.4;stroke-linecap:round;stroke-linejoin:round;stroke-dasharray:none;stroke-opacity:1"
         d="m 94.341729,94.592639 c -2.928073,-0.149888 -5.916881,0.864153 -8.781809,0.250907"
         id="path4134" /><path
         style="fill:none;fill-opacity:1;stroke:#ffa600;stroke-width:3.4;stroke-linecap:round;stroke-linejoin:round;stroke-dasharray:none;stroke-opacity:1"
         d="m 103.62536,97.352635 c -0.12926,-4.489111 0.44326,-8.894949 1.02542,-13.214111 -0.14138,-4.495315 6.80177,-6.262866 8.76002,-2.342238 2.37476,2.873691 -0.48322,5.112368 -2.03562,5.718704 -1.34454,0.604171 -7.60185,1.716331 -6.49528,1.808562 4.24036,-1.086729 9.2348,-1.07271 10.28727,4.265451 0.38732,-0.03434 1.77622,4.178897 1.75636,5.519994"
         id="path4136" /><path
         style="fill:none;fill-opacity:1;stroke:#ffa600;stroke-width:3.4;stroke-linecap:round;stroke-linejoin:round;stroke-dasharray:none;stroke-opacity:1"
         d="m 131.97806,81.294469 c -3.15422,-0.275929 -6.41591,0.03806 -8.71737,2.126941 -2.30325,5.399708 4.76192,3.250303 7.48195,4.481689 3.01249,0.166687 4.24786,3.572203 4.79022,5.801425 0.63528,5.143679 -4.89904,5.19238 -8.28319,3.98759 -1.84145,-0.662811 -3.82537,-2.14232 -4.55524,-3.601294"
         id="path4138" /><path
         style="fill:none;fill-opacity:1;stroke:#ffa600;stroke-width:3.4;stroke-linecap:round;stroke-linejoin:round;stroke-dasharray:none;stroke-opacity:1"
         d="m 140.25805,80.792652 c 4.35602,1.656389 9.08236,1.286458 13.59036,2.099139 l 0.65825,-0.114698 0.55501,-0.228118"
         id="path4148" /><path
         style="fill:none;fill-opacity:1;stroke:#ffa600;stroke-width:3.4;stroke-linecap:round;stroke-linejoin:round;stroke-dasharray:none;stroke-opacity:1"
         d="m 147.2835,83.301741 c 0.4075,5.681986 1.01488,11.358632 1.00363,17.061799"
         id="path4150" /><path
         style="fill:none;fill-opacity:1;stroke:#ffa600;stroke-width:3.4;stroke-linecap:round;stroke-linejoin:round;stroke-dasharray:none;stroke-opacity:1"
         d="m 57.458128,121.6908 c -0.196688,-4.96564 -0.05526,-9.89915 1.756362,-14.55272 -0.372967,-4.0503 6.019607,-4.29952 7.538885,-1.51026 2.421707,4.90226 -4.984883,5.69047 -8.376946,5.03617 l -0.667392,-0.0132"
         id="path4152" /><path
         style="fill:none;fill-opacity:1;stroke:#ffa600;stroke-width:3.4;stroke-linecap:round;stroke-linejoin:round;stroke-dasharray:none;stroke-opacity:1"
         d="m 68.247209,120.93807 c 3.828992,-4.16181 6.994094,-8.95468 8.660947,-14.4012 3.500285,3.10716 3.343216,9.98041 5.453971,14.52239 0.151853,0.61536 0.219082,1.25261 0.186871,1.88608"
         id="path4154" /><path
         style="fill:none;fill-opacity:1;stroke:#ffa600;stroke-width:3.4;stroke-linecap:round;stroke-linejoin:round;stroke-dasharray:none;stroke-opacity:1"
         d="m 72.763567,113.91262 c 2.758686,-0.0399 5.09933,2.20095 8.029085,1.7564"
         id="path4156" /><path
         style="fill:none;fill-opacity:1;stroke:#ffa600;stroke-width:3.4;stroke-linecap:round;stroke-linejoin:round;stroke-dasharray:none;stroke-opacity:1"
         d="m 88.821735,125.20352 c 1.440975,-4.46251 -0.143843,-9.40913 2.12876,-13.64732 1.269774,-6.94178 2.884438,2.76529 4.450381,4.98595 0.810472,1.81996 3.529834,9.38948 5.037564,6.53213 -0.39271,-3.85112 -1.290118,-7.93709 -0.16541,-11.80093 -0.11612,-1.37948 -0.15412,-2.75156 -0.16027,-4.13527"
         id="path4158" /><path
         style="fill:none;fill-opacity:1;stroke:#ffa600;stroke-width:3.4;stroke-linecap:round;stroke-linejoin:round;stroke-dasharray:none;stroke-opacity:1"
         d="m 114.91626,107.6399 c -3.23929,-0.51093 -9.66257,-1.91779 -10.03636,3.0109 -1.40331,2.88515 0.63187,5.81692 0.71756,8.62611 1.00269,1.96569 3.041,5.76204 6.8111,5.25414 2.81845,0.61013 5.69393,0.37125 7.77678,-1.83662"
         id="path4160" /><path
         style="fill:none;fill-opacity:1;stroke:#ffa600;stroke-width:3.4;stroke-linecap:round;stroke-linejoin:round;stroke-dasharray:none;stroke-opacity:1"
         d="m 124.19988,121.6908 c 1.1318,-4.27066 0.9698,-9.22258 3.20505,-13.19945 1.7203,-3.88973 2.32926,4.93726 3.56949,6.174 -0.0258,2.75892 1.8284,3.97507 2.76,6.02181"
         id="path4164" /><path
         style="fill:none;fill-opacity:1;stroke:#ffa600;stroke-width:3.4;stroke-linecap:round;stroke-linejoin:round;stroke-dasharray:none;stroke-opacity:1"
         d="m 125.20352,115.41807 c 1.89723,0.13876 3.36369,-0.11522 5.01817,-0.2509"
         id="path4166" /><path
         style="fill:none;fill-opacity:1;stroke:#ffa600;stroke-width:3.4;stroke-linecap:round;stroke-linejoin:round;stroke-dasharray:none;stroke-opacity:1"
         d="m 137.24714,103.37445 c -0.35651,3.81787 1.45846,7.50012 1.52942,11.15797 0.15051,3.07179 1.24142,6.00591 1.48149,9.16564"
         id="path4168" /><path
         style="fill:none;fill-opacity:1;stroke:#ffa600;stroke-width:3.4;stroke-linecap:round;stroke-linejoin:round;stroke-dasharray:none;stroke-opacity:1"
         d="m 139.00351,112.90898 c 2.1834,-2.92234 3.65385,-4.72812 5.7709,-7.27635"
         id="path4172" /><path
         style="fill:none;fill-opacity:1;stroke:#ffa600;stroke-width:3.4;stroke-linecap:round;stroke-linejoin:round;stroke-dasharray:none;stroke-opacity:1"
         d="m 150.04349,121.9417 c -3.95115,-2.0883 -6.62051,-5.8048 -9.80294,-8.5746 l -0.51441,-0.48631 -0.22082,-0.47362"
         id="path4178" /><path
         style="fill:none;fill-opacity:1;stroke:#ffa600;stroke-width:3.4;stroke-linecap:round;stroke-linejoin:round;stroke-dasharray:none;stroke-opacity:1"
         d="m 149.79259,111.90535 c 4.26762,1.95027 10.65825,-4.46789 6.30556,-7.74452 -4.64873,-2.20751 -8.81786,2.51813 -7.3092,6.99179 1.76333,2.7382 2.91087,7.45916 7.4221,6.99006 2.1427,0.25471 4.10009,-0.0678 6.12698,-0.46643"
         id="path4182" /><path
         style="fill:none;fill-opacity:1;stroke:#ffa600;stroke-width:3.4;stroke-linecap:round;stroke-linejoin:round;stroke-dasharray:none;stroke-opacity:1"
         d="m 59.4654,129.97079 c 4.521652,2.03091 9.293683,3.08546 14.162874,3.87464 5.136286,1.39483 10.421708,1.81135 15.704597,2.13797 6.805774,0.93285 13.702819,0.35931 20.558599,0.56849 6.08352,-0.44921 12.20677,-0.3007 18.27631,-1.22463 5.41694,-1.3877 11.2588,-1.33479 16.35572,-3.85107"
         id="path4184" /><path
         style="fill:none;fill-opacity:1;stroke:#ffa600;stroke-width:3.4;stroke-linecap:round;stroke-linejoin:round;stroke-dasharray:none;stroke-opacity:1"
         d="m 59.716307,57.709037 c 2.13357,2.534997 6.783016,4.082521 7.967586,6.519045 -2.587798,3.284052 -5.289366,6.509071 -8.458602,9.129595 l -0.03271,0.114817 -0.228999,0.0438"
         id="path4186" /><path
         style="fill:none;fill-opacity:1;stroke:#ffa600;stroke-width:3.4;stroke-linecap:round;stroke-linejoin:round;stroke-dasharray:none;stroke-opacity:1"
         d="m 58.96358,65.73812 c 3.248033,-0.253188 5.989795,-2.518312 9.283629,-2.509089"
         id="path4188" /><path
         style="fill:none;fill-opacity:1;stroke:#ffa600;stroke-width:3.4;stroke-linecap:round;stroke-linejoin:round;stroke-dasharray:none;stroke-opacity:1"
         d="m 141.7635,56.203585 c -4.04683,0.851025 -7.87215,5.155862 -3.24426,8.036325 1.64238,3.131797 4.31447,5.126082 6.25513,8.021854"
         id="path4190" /><path
         style="fill:none;fill-opacity:1;stroke:#ffa600;stroke-width:3.4;stroke-linecap:round;stroke-linejoin:round;stroke-dasharray:none;stroke-opacity:1"
         d="m 136.24351,60.218126 c 3.76205,2.300728 7.92462,3.690817 11.79272,5.770904"
         id="path4196" /></g><path
       style="fill:none;fill-opacity:1;stroke:#ff6361;stroke-width:6.49146;stroke-linecap:round;stroke-linejoin:round;stroke-dasharray:none;stroke-opacity:1"
       d="m 784.87483,566.5139 c 2.00971,13.68138 10.10754,25.23348 15.45231,37.81452 4.45765,8.83575 11.82147,15.6574 18.52338,22.65033 5.5087,6.70378 12.59077,12.30789 19.38716,17.85156 8.83082,5.04692 16.77971,11.19967 26.68132,13.91655 8.80426,4.62513 18.41039,7.46053 28.12095,9.50167 12.44447,2.98909 25.21189,5.07514 38.10245,5.2788 14.18804,-0.63524 28.34049,-2.60949 42.22941,-5.08688 15.73038,-5.90816 33.54409,-7.3136 46.83629,-18.33147 7.8798,-3.87318 14.0943,-9.95005 21.6905,-14.10854 14.0816,-13.80986 26.5265,-29.23257 34.4751,-47.47474 7.7895,-13.92867 5.0019,-30.68157 7.0829,-46.00589 0,-9.4609 -2.4593,-18.67524 -5.0868,-27.54512 -0.4533,-10.54223 -8.957,-18.59974 -13.3449,-27.85585 -4.469,-7.40178 -9.304,-14.66278 -15.641,-20.42012 -3.2486,-4.16186 -8.3959,-7.09361 -12.2849,-10.94126 -3.6671,-3.64098 -8.2617,-7.82692 -14.0125,-9.59759 -11.7557,-4.42286 -20.7552,-13.65358 -33.01566,-15.54811 -6.87465,-2.06244 -15.00437,-4.19029 -22.34778,-6.12676 -11.39561,0.38595 -22.19275,-3.94061 -33.68263,-2.73969 -13.09685,1.04939 -26.67965,0.0565 -39.0128,5.5289 -11.32849,1.11598 -21.84463,5.02742 -31.69863,10.6423 -8.29528,1.63497 -15.45503,5.70954 -21.85261,10.99416 -12.99404,6.38059 -23.28301,16.82198 -31.21801,28.5034 -3.79032,5.18198 -8.59661,9.36979 -11.26563,15.06609 -7.0428,9.52756 -8.57502,21.75155 -11.94429,32.84677 -4.18675,12.26314 -1.52559,25.21177 -2.46214,37.9236 0.29764,1.0288 0.10451,2.19122 0.28851,3.26337 z"
       id="path15860" /><path
       style="fill:none;fill-opacity:1;stroke:#ff6361;stroke-width:6.49146;stroke-linecap:round;stroke-linejoin:round;stroke-dasharray:none;stroke-opacity:1"
       d="m 1084.2988,563.0602 c -0.9818,11.51051 -1.5127,23.10811 -5.8364,33.93263 -3.252,11.54413 -6.3722,23.60504 -15.3376,32.16812 -6.6228,7.80248 -11.8768,16.87965 -20.0539,23.30958 -4.1966,2.86177 -10.9535,8.75707 -16.4575,12.25181 -9.5842,8.00916 -20.7276,14.28395 -33.11827,16.96631 -12.31031,6.58712 -26.84197,7.07284 -40.31196,10.45125 -14.52223,0.37702 -28.89528,0.76301 -43.29803,-1.49304 -10.79741,-2.9653 -22.16491,-3.77872 -32.43958,-8.27956 -10.89552,-2.65156 -21.40738,-7.38943 -31.48948,-12.35147 -7.96198,-6.53856 -16.39501,-12.58606 -24.97441,-18.18788 -5.5895,-6.55725 -11.74748,-11.98192 -16.42339,-19.27374 -8.4349,-9.53063 -12.43565,-23.22336 -17.51575,-33.7866 -5.67585,-16.49959 -6.12216,-34.0728 -4.7531,-51.32411 l 0.14477,-2.57118"
       id="path15866"
       sodipodi:nodetypes="cccsccsscssscscsscssssssscssssssssscscsscssssssccsscsssssssssssssssssssssssssscssssssssssssssssssssssscssssssssssssssssssssssscsssssssssscsssssssssscsssssssssssssssssssssssssssssssssssscssssssssscssssssssssssssssssssssssssscccssssssssssssssscssssssscsssssssscsssssssssssssssssc" /></g></svg>
